<?xml version="1.0" encoding="UTF-8"?>
<svg xmlns="http://www.w3.org/2000/svg" xmlns:xlink="http://www.w3.org/1999/xlink" width="375pt" height="374.999991pt" viewBox="0 0 375 374.999991" version="1.2">
<defs>
<filter id="alpha" filterUnits="objectBoundingBox" x="0%" y="0%" width="100%" height="100%">
  <feColorMatrix type="matrix" in="SourceGraphic" values="0 0 0 0 1 0 0 0 0 1 0 0 0 0 1 0 0 0 1 0"/>
</filter>
<mask id="mask0">
  <g filter="url(#alpha)">
<rect x="0" y="0" width="375" height="374.999991" style="fill:rgb(0%,0%,0%);fill-opacity:0.2;stroke:none;"/>
  </g>
</mask>
<clipPath id="clip2">
  <path d="M 0.601562 0 L 50.28125 0 L 50.28125 24.238281 L 0.601562 24.238281 Z M 0.601562 0 "/>
</clipPath>
<clipPath id="clip1">
  <rect x="0" y="0" width="51" height="25"/>
</clipPath>
<g id="surface5" clip-path="url(#clip1)">
<g clip-path="url(#clip2)" clip-rule="nonzero">
<path style="fill:none;stroke-width:1;stroke-linecap:round;stroke-linejoin:miter;stroke:rgb(7.449341%,12.159729%,19.999695%);stroke-opacity:1;stroke-miterlimit:4;" d="M 0.499544 0.000572342 L 15.729957 0.0000801073 " transform="matrix(2.790181,1.113959,-0.988758,2.476584,1.78253,2.586642)"/>
</g>
</g>
<mask id="mask1">
  <g filter="url(#alpha)">
<rect x="0" y="0" width="375" height="374.999991" style="fill:rgb(0%,0%,0%);fill-opacity:0.2;stroke:none;"/>
  </g>
</mask>
<clipPath id="clip4">
  <path d="M 0.519531 0.601562 L 52.359375 0.601562 L 52.359375 28.199219 L 0.519531 28.199219 Z M 0.519531 0.601562 "/>
</clipPath>
<clipPath id="clip3">
  <rect x="0" y="0" width="53" height="29"/>
</clipPath>
<g id="surface8" clip-path="url(#clip3)">
<g clip-path="url(#clip4)" clip-rule="nonzero">
<path style="fill:none;stroke-width:1;stroke-linecap:round;stroke-linejoin:miter;stroke:rgb(7.449341%,12.159729%,19.999695%);stroke-opacity:1;stroke-miterlimit:4;" d="M 0.499499 0.000388877 L 16.629325 -0.0000738669 " transform="matrix(2.753326,-1.243744,1.097789,2.43022,1.63601,25.565616)"/>
</g>
</g>
<mask id="mask2">
  <g filter="url(#alpha)">
<rect x="0" y="0" width="375" height="374.999991" style="fill:rgb(0%,0%,0%);fill-opacity:0.2;stroke:none;"/>
  </g>
</mask>
<clipPath id="clip6">
  <path d="M 1 0.398438 L 6 0.398438 L 6 99 L 1 99 Z M 1 0.398438 "/>
</clipPath>
<clipPath id="clip5">
  <rect x="0" y="0" width="7" height="100"/>
</clipPath>
<g id="surface11" clip-path="url(#clip5)">
<g clip-path="url(#clip6)" clip-rule="nonzero">
<path style="fill:none;stroke-width:1;stroke-linecap:round;stroke-linejoin:miter;stroke:rgb(7.449341%,12.159729%,19.999695%);stroke-opacity:1;stroke-miterlimit:4;" d="M 0.499877 -0.00022051 L 32.364927 -0.00022051 " transform="matrix(0.000000000000000183,2.989659,-3.173553,0.000000000000000194,3.483675,0.614914)"/>
</g>
</g>
<mask id="mask3">
  <g filter="url(#alpha)">
<rect x="0" y="0" width="375" height="374.999991" style="fill:rgb(0%,0%,0%);fill-opacity:0.2;stroke:none;"/>
  </g>
</mask>
<clipPath id="clip8">
  <path d="M 2 0.398438 L 5 0.398438 L 5 96 L 2 96 Z M 2 0.398438 "/>
</clipPath>
<clipPath id="clip7">
  <rect x="0" y="0" width="7" height="98"/>
</clipPath>
<g id="surface14" clip-path="url(#clip7)">
<g clip-path="url(#clip8)" clip-rule="nonzero">
<path style="fill:none;stroke-width:1;stroke-linecap:round;stroke-linejoin:miter;stroke:rgb(7.449341%,12.159729%,19.999695%);stroke-opacity:1;stroke-miterlimit:4;" d="M 0.499579 -0.000730378 L 30.907507 -0.000730378 " transform="matrix(0.000000000000000184,3.008955,-2.666667,0.000000000000000163,3.435552,0.613976)"/>
</g>
</g>
<mask id="mask4">
  <g filter="url(#alpha)">
<rect x="0" y="0" width="375" height="374.999991" style="fill:rgb(0%,0%,0%);fill-opacity:0.2;stroke:none;"/>
  </g>
</mask>
<clipPath id="clip10">
  <path d="M 0.960938 0.800781 L 51.121094 0.800781 L 51.121094 24.800781 L 0.960938 24.800781 Z M 0.960938 0.800781 "/>
</clipPath>
<clipPath id="clip9">
  <rect x="0" y="0" width="52" height="25"/>
</clipPath>
<g id="surface17" clip-path="url(#clip9)">
<g clip-path="url(#clip10)" clip-rule="nonzero">
<path style="fill:none;stroke-width:1;stroke-linecap:round;stroke-linejoin:miter;stroke:rgb(7.449341%,12.159729%,19.999695%);stroke-opacity:1;stroke-miterlimit:4;" d="M 0.499725 -0.000321713 L 15.8018 0.000545691 " transform="matrix(2.802611,-1.043736,1.107568,2.97401,2.181852,21.729569)"/>
</g>
</g>
<mask id="mask5">
  <g filter="url(#alpha)">
<rect x="0" y="0" width="375" height="374.999991" style="fill:rgb(0%,0%,0%);fill-opacity:0.2;stroke:none;"/>
  </g>
</mask>
<clipPath id="clip12">
  <path d="M 0.640625 0.28125 L 50.078125 0.28125 L 50.078125 25.238281 L 0.640625 25.238281 Z M 0.640625 0.28125 "/>
</clipPath>
<clipPath id="clip11">
  <rect x="0" y="0" width="51" height="26"/>
</clipPath>
<g id="surface20" clip-path="url(#clip11)">
<g clip-path="url(#clip12)" clip-rule="nonzero">
<path style="fill:none;stroke-width:1;stroke-linecap:round;stroke-linejoin:miter;stroke:rgb(7.449341%,12.159729%,19.999695%);stroke-opacity:1;stroke-miterlimit:4;" d="M 0.499612 0.000564813 L 15.617743 -0.00043786 " transform="matrix(2.763832,1.109428,-1.182206,2.945137,1.8542,3.330772)"/>
</g>
</g>
<mask id="mask6">
  <g filter="url(#alpha)">
<rect x="0" y="0" width="375" height="374.999991" style="fill:rgb(0%,0%,0%);fill-opacity:0.2;stroke:none;"/>
  </g>
</mask>
<clipPath id="clip14">
  <path d="M 0.558594 2 L 42 2 L 42 6 L 0.558594 6 Z M 0.558594 2 "/>
</clipPath>
<clipPath id="clip13">
  <rect x="0" y="0" width="43" height="7"/>
</clipPath>
<g id="surface23" clip-path="url(#clip13)">
<g clip-path="url(#clip14)" clip-rule="nonzero">
<path style="fill:none;stroke-width:1;stroke-linecap:round;stroke-linejoin:miter;stroke:rgb(7.449341%,12.159729%,19.999695%);stroke-opacity:1;stroke-miterlimit:4;" d="M 0.50048 -0.00020576 L 13.255405 -0.00020576 " transform="matrix(2.999148,0,0,3.173553,0.655238,3.625653)"/>
</g>
</g>
<mask id="mask7">
  <g filter="url(#alpha)">
<rect x="0" y="0" width="375" height="374.999991" style="fill:rgb(0%,0%,0%);fill-opacity:0.2;stroke:none;"/>
  </g>
</mask>
<clipPath id="clip16">
  <path d="M 0.761719 0.0390625 L 19.238281 0.0390625 L 19.238281 12.28125 L 0.761719 12.28125 Z M 0.761719 0.0390625 "/>
</clipPath>
<clipPath id="clip15">
  <rect x="0" y="0" width="20" height="13"/>
</clipPath>
<g id="surface26" clip-path="url(#clip15)">
<g clip-path="url(#clip16)" clip-rule="nonzero">
<path style="fill:none;stroke-width:1;stroke-linecap:round;stroke-linejoin:miter;stroke:rgb(7.449341%,12.159729%,19.999695%);stroke-opacity:1;stroke-miterlimit:4;" d="M 0.500072 -0.000396138 L 5.368982 0.000241127 " transform="matrix(2.700351,-1.16283,1.054693,2.449231,1.943017,9.644969)"/>
</g>
</g>
</defs>
<g id="surface1">
<rect x="0" y="0" width="375" height="374.999991" style="fill:rgb(100%,100%,100%);fill-opacity:1;stroke:none;"/>
<rect x="0" y="0" width="375" height="374.999991" style="fill:rgb(100%,100%,100%);fill-opacity:1;stroke:none;"/>
<path style=" stroke:none;fill-rule:nonzero;fill:rgb(100%,100%,100%);fill-opacity:1;" d="M 186.65625 73.011719 C 184.78125 73.011719 182.910156 73.054688 181.039062 73.148438 C 179.167969 73.238281 177.296875 73.378906 175.433594 73.5625 C 173.570312 73.746094 171.710938 73.976562 169.855469 74.25 C 168.003906 74.523438 166.15625 74.84375 164.320312 75.210938 C 162.480469 75.574219 160.65625 75.984375 158.835938 76.441406 C 157.019531 76.898438 155.214844 77.394531 153.421875 77.941406 C 151.628906 78.484375 149.847656 79.070312 148.085938 79.703125 C 146.320312 80.335938 144.574219 81.007812 142.84375 81.726562 C 141.109375 82.441406 139.398438 83.203125 137.703125 84.003906 C 136.011719 84.804688 134.339844 85.644531 132.6875 86.527344 C 131.03125 87.414062 129.402344 88.335938 127.796875 89.300781 C 126.1875 90.261719 124.605469 91.265625 123.046875 92.304688 C 121.492188 93.347656 119.960938 94.425781 118.453125 95.542969 C 116.949219 96.65625 115.472656 97.808594 114.023438 99 C 112.574219 100.1875 111.15625 101.410156 109.769531 102.667969 C 108.378906 103.925781 107.023438 105.21875 105.699219 106.542969 C 104.375 107.867188 103.082031 109.226562 101.824219 110.613281 C 100.566406 112 99.34375 113.421875 98.152344 114.867188 C 96.964844 116.316406 95.8125 117.792969 94.695312 119.296875 C 93.582031 120.804688 92.5 122.335938 91.460938 123.894531 C 90.421875 125.449219 89.417969 127.035156 88.453125 128.640625 C 87.492188 130.246094 86.566406 131.878906 85.683594 133.53125 C 84.800781 135.183594 83.960938 136.855469 83.15625 138.550781 C 82.355469 140.242188 81.597656 141.957031 80.882812 143.6875 C 80.164062 145.417969 79.488281 147.164062 78.859375 148.929688 C 78.226562 150.695312 77.640625 152.472656 77.097656 154.265625 C 76.550781 156.058594 76.050781 157.863281 75.597656 159.679688 C 75.140625 161.5 74.730469 163.328125 74.367188 165.164062 C 74 167 73.679688 168.847656 73.40625 170.699219 C 73.128906 172.554688 72.902344 174.414062 72.71875 176.277344 C 72.535156 178.144531 72.394531 180.011719 72.304688 181.882812 C 72.210938 183.753906 72.164062 185.625 72.164062 187.5 C 72.164062 189.375 72.210938 191.246094 72.304688 193.117188 C 72.394531 194.988281 72.535156 196.855469 72.71875 198.722656 C 72.902344 200.585938 73.128906 202.445312 73.40625 204.300781 C 73.679688 206.152344 74 208 74.367188 209.835938 C 74.730469 211.671875 75.140625 213.5 75.597656 215.320312 C 76.050781 217.136719 76.550781 218.941406 77.097656 220.734375 C 77.640625 222.527344 78.226562 224.304688 78.859375 226.070312 C 79.488281 227.835938 80.164062 229.582031 80.882812 231.3125 C 81.597656 233.042969 82.355469 234.757812 83.15625 236.449219 C 83.960938 238.144531 84.800781 239.816406 85.683594 241.46875 C 86.566406 243.121094 87.492188 244.753906 88.453125 246.359375 C 89.417969 247.964844 90.421875 249.550781 91.460938 251.105469 C 92.5 252.664062 93.582031 254.195312 94.695312 255.703125 C 95.8125 257.207031 96.964844 258.683594 98.152344 260.132812 C 99.34375 261.578125 100.566406 263 101.824219 264.386719 C 103.082031 265.773438 104.375 267.132812 105.699219 268.457031 C 107.023438 269.78125 108.378906 271.074219 109.769531 272.332031 C 111.15625 273.589844 112.574219 274.8125 114.023438 276 C 115.472656 277.191406 116.949219 278.34375 118.453125 279.457031 C 119.960938 280.574219 121.492188 281.652344 123.046875 282.695312 C 124.605469 283.734375 126.1875 284.738281 127.796875 285.699219 C 129.402344 286.664062 131.03125 287.585938 132.6875 288.472656 C 134.339844 289.355469 136.011719 290.195312 137.703125 290.996094 C 139.398438 291.796875 141.109375 292.558594 142.84375 293.273438 C 144.574219 293.992188 146.320312 294.664062 148.085938 295.296875 C 149.847656 295.929688 151.628906 296.515625 153.421875 297.058594 C 155.214844 297.605469 157.019531 298.101562 158.835938 298.558594 C 160.65625 299.015625 162.480469 299.425781 164.320312 299.789062 C 166.15625 300.15625 168.003906 300.476562 169.855469 300.75 C 171.710938 301.023438 173.570312 301.253906 175.433594 301.4375 C 177.296875 301.621094 179.167969 301.757812 181.039062 301.851562 C 182.910156 301.945312 184.78125 301.988281 186.65625 301.988281 C 188.527344 301.988281 190.402344 301.945312 192.273438 301.851562 C 194.144531 301.757812 196.011719 301.621094 197.878906 301.4375 C 199.742188 301.253906 201.601562 301.023438 203.453125 300.75 C 205.308594 300.476562 207.152344 300.15625 208.992188 299.789062 C 210.828125 299.425781 212.65625 299.015625 214.472656 298.558594 C 216.292969 298.101562 218.097656 297.605469 219.890625 297.058594 C 221.683594 296.515625 223.460938 295.929688 225.226562 295.296875 C 226.988281 294.664062 228.738281 293.992188 230.46875 293.273438 C 232.199219 292.558594 233.914062 291.796875 235.605469 290.996094 C 237.300781 290.195312 238.972656 289.355469 240.625 288.472656 C 242.277344 287.585938 243.90625 286.664062 245.515625 285.699219 C 247.121094 284.738281 248.703125 283.734375 250.261719 282.695312 C 251.820312 281.652344 253.351562 280.574219 254.855469 279.457031 C 256.363281 278.34375 257.839844 277.191406 259.285156 276 C 260.734375 274.8125 262.152344 273.589844 263.542969 272.332031 C 264.929688 271.074219 266.285156 269.78125 267.613281 268.457031 C 268.9375 267.132812 270.226562 265.773438 271.488281 264.386719 C 272.746094 263 273.96875 261.578125 275.15625 260.132812 C 276.347656 258.683594 277.5 257.207031 278.613281 255.703125 C 279.730469 254.195312 280.808594 252.664062 281.851562 251.105469 C 282.890625 249.550781 283.894531 247.964844 284.855469 246.359375 C 285.820312 244.753906 286.742188 243.121094 287.625 241.46875 C 288.507812 239.816406 289.351562 238.144531 290.152344 236.449219 C 290.953125 234.757812 291.714844 233.042969 292.429688 231.3125 C 293.148438 229.582031 293.820312 227.835938 294.453125 226.070312 C 295.082031 224.304688 295.671875 222.527344 296.214844 220.734375 C 296.757812 218.941406 297.257812 217.136719 297.714844 215.320312 C 298.167969 213.5 298.578125 211.671875 298.945312 209.835938 C 299.3125 208 299.632812 206.152344 299.90625 204.300781 C 300.179688 202.445312 300.410156 200.585938 300.59375 198.722656 C 300.777344 196.855469 300.914062 194.988281 301.007812 193.117188 C 301.097656 191.246094 301.144531 189.375 301.144531 187.5 C 301.144531 185.625 301.097656 183.753906 301.007812 181.882812 C 300.914062 180.011719 300.777344 178.144531 300.59375 176.277344 C 300.410156 174.414062 300.179688 172.554688 299.90625 170.699219 C 299.632812 168.847656 299.3125 167 298.945312 165.164062 C 298.578125 163.328125 298.167969 161.5 297.714844 159.679688 C 297.257812 157.863281 296.757812 156.058594 296.214844 154.265625 C 295.671875 152.472656 295.082031 150.695312 294.453125 148.929688 C 293.820312 147.164062 293.148438 145.417969 292.429688 143.6875 C 291.714844 141.957031 290.953125 140.242188 290.152344 138.550781 C 289.351562 136.855469 288.507812 135.183594 287.625 133.53125 C 286.742188 131.878906 285.820312 130.246094 284.855469 128.640625 C 283.894531 127.035156 282.890625 125.449219 281.851562 123.894531 C 280.808594 122.335938 279.730469 120.804688 278.613281 119.296875 C 277.5 117.792969 276.347656 116.316406 275.15625 114.867188 C 273.96875 113.421875 272.746094 112 271.488281 110.613281 C 270.226562 109.226562 268.9375 107.867188 267.613281 106.542969 C 266.285156 105.21875 264.929688 103.925781 263.542969 102.667969 C 262.152344 101.410156 260.734375 100.1875 259.285156 99 C 257.839844 97.808594 256.363281 96.65625 254.855469 95.542969 C 253.351562 94.425781 251.820312 93.347656 250.261719 92.304688 C 248.703125 91.265625 247.121094 90.261719 245.515625 89.300781 C 243.90625 88.335938 242.277344 87.414062 240.625 86.527344 C 238.972656 85.644531 237.300781 84.804688 235.605469 84.003906 C 233.914062 83.203125 232.199219 82.441406 230.46875 81.726562 C 228.738281 81.007812 226.988281 80.335938 225.226562 79.703125 C 223.460938 79.070312 221.683594 78.484375 219.890625 77.941406 C 218.097656 77.394531 216.292969 76.898438 214.472656 76.441406 C 212.65625 75.984375 210.828125 75.574219 208.992188 75.210938 C 207.152344 74.84375 205.308594 74.523438 203.453125 74.25 C 201.601562 73.976562 199.742188 73.746094 197.878906 73.5625 C 196.011719 73.378906 194.144531 73.238281 192.273438 73.148438 C 190.402344 73.054688 188.527344 73.011719 186.65625 73.011719 Z M 186.65625 73.011719 "/>
<path style="fill:none;stroke-width:1;stroke-linecap:round;stroke-linejoin:miter;stroke:rgb(7.449341%,12.159729%,19.999695%);stroke-opacity:1;stroke-miterlimit:4;" d="M 0.499649 0.000416688 L 15.366231 0.000416688 " transform="matrix(2.978576,0,0,3.173553,162.855507,209.127584)"/>
<path style="fill:none;stroke-width:1;stroke-linecap:round;stroke-linejoin:miter;stroke:rgb(7.449341%,12.159729%,19.999695%);stroke-opacity:1;stroke-miterlimit:4;" d="M 0.499561 -0.000245425 L 30.907488 -0.000245425 " transform="matrix(0.000000000000000184,3.008955,-2.666667,0.000000000000000163,210.386064,160.582782)"/>
<path style="fill:none;stroke-width:1;stroke-linecap:round;stroke-linejoin:miter;stroke:rgb(7.449341%,12.159729%,19.999695%);stroke-opacity:1;stroke-miterlimit:4;" d="M 0.499561 0.000288885 L 30.907488 0.000288885 " transform="matrix(0.000000000000000184,3.008955,-2.666667,0.000000000000000163,162.785927,160.582782)"/>
<path style="fill:none;stroke-width:1;stroke-linecap:round;stroke-linejoin:miter;stroke:rgb(7.449341%,12.159729%,19.999695%);stroke-opacity:1;stroke-miterlimit:4;" d="M 0.499796 -0.00082942 L 15.5691 -0.000354333 " transform="matrix(2.705692,-1.266879,1.130789,2.415042,210.675987,161.951591)"/>
<path style="fill:none;stroke-width:1;stroke-linecap:round;stroke-linejoin:miter;stroke:rgb(7.449341%,12.159729%,19.999695%);stroke-opacity:1;stroke-miterlimit:4;" d="M 0.500161 0.00000422401 L 14.94394 -0.000222147 " transform="matrix(2.833738,-1.018998,0.902352,2.509357,210.906891,253.673715)"/>
<path style="fill:none;stroke-width:1;stroke-linecap:round;stroke-linejoin:miter;stroke:rgb(7.449341%,12.159729%,19.999695%);stroke-opacity:1;stroke-miterlimit:4;" d="M 0.499556 -0.000499116 L 14.944474 -0.000215707 " transform="matrix(2.763211,1.197118,-1.060083,2.446903,121.076123,142.707881)"/>
<path style="fill:none;stroke-width:1;stroke-linecap:round;stroke-linejoin:miter;stroke:rgb(7.449341%,12.159729%,19.999695%);stroke-opacity:1;stroke-miterlimit:4;" d="M 0.499948 -0.000759961 L 14.944865 -0.000476553 " transform="matrix(2.763211,1.197118,-1.060083,2.446903,120.563046,235.286176)"/>
<path style="fill:none;stroke-width:1;stroke-linecap:round;stroke-linejoin:miter;stroke:rgb(7.449341%,12.159729%,19.999695%);stroke-opacity:1;stroke-miterlimit:4;" d="M 0.500196 -0.000326034 L 5.368447 -0.000460392 " transform="matrix(2.707245,1.146687,-1.040051,2.455485,146.12207,202.255357)"/>
<use xlink:href="#surface5" transform="matrix(1,0,0,1,207,120)" mask="url(#mask0)"/>
<use xlink:href="#surface8" transform="matrix(1,0,0,1,119,117)" mask="url(#mask1)"/>
<use xlink:href="#surface11" transform="matrix(1,0,0,1,163,122)" mask="url(#mask2)"/>
<use xlink:href="#surface14" transform="matrix(1,0,0,1,205,122)" mask="url(#mask3)"/>
<use xlink:href="#surface17" transform="matrix(1,0,0,1,120,214)" mask="url(#mask4)"/>
<use xlink:href="#surface20" transform="matrix(1,0,0,1,206,215)" mask="url(#mask5)"/>
<use xlink:href="#surface23" transform="matrix(1,0,0,1,166,165)" mask="url(#mask6)"/>
<use xlink:href="#surface26" transform="matrix(1,0,0,1,143,167)" mask="url(#mask7)"/>
</g>
</svg>
